# xmcd
#
# Track frame offsets:
#	150
#	12078
#	25142
#	35870
#	47329
#	60673
#	76753
#	88566
#	101317
#	112553
#	127766
#	138589
#	156577
#
# Disc length: 2222 seconds
#
# Revision: 1
# Processed by: cddbd v1.5.1PL0 Copyright (c) Steve Scherf et al.
# Submitted via: audiograbber 1.83.01
#
DISCID=9108ac0d
DTITLE=Frank Prost - Harpin' on it
DYEAR=2001
DGENRE=Blues
TTITLE0=My Back Scratcher
TTITLE1=Harp And Soul
TTITLE2=Pocket Full Of Money
TTITLE3=Things To Do
TTITLE4=Harpin' On It
TTITLE5=Five Long Years
TTITLE6=Ride With Your Daddy Tonight
TTITLE7=Got My Mojo Working
TTITLE8=Feel Good Babe
TTITLE9=Janie On My Mind
TTITLE10=Never Leave Me At Home
TTITLE11=Didn't Mean No Harm
TTITLE12=Pretty Baby
EXTD=
EXTT0=
EXTT1=
EXTT2=
EXTT3=
EXTT4=
EXTT5=
EXTT6=
EXTT7=
EXTT8=
EXTT9=
EXTT10=
EXTT11=
EXTT12=
PLAYORDER=
